<?xml version="1.0" encoding="UTF-8"?>
<svg width="66px" height="64px" viewBox="0 0 66 64" version="1.1" xmlns="http://www.w3.org/2000/svg" xmlns:xlink="http://www.w3.org/1999/xlink">
    <!-- Generator: Sketch 59.1 (86144) - https://sketch.com -->
    <title>Shape</title>
    <desc>Created with Sketch.</desc>
    <g id="V2" stroke="none" stroke-width="1" fill="none" fill-rule="evenodd">
        <g id="Tradle-Copy" transform="translate(-523.000000, -268.000000)" fill="#000000" fill-rule="nonzero">
            <path d="M576,275.73 C576,275.73 576,275.73 576,275.73 C576.021289,275.487132 576.021289,275.242868 576,275 C576.042106,273.06051 574.686466,271.370391 572.784061,270.990589 C570.881656,270.610787 568.980964,271.650801 568.275113,273.457778 C567.569262,275.264756 568.261755,277.317733 569.917891,278.327986 C571.574026,279.338238 573.716328,279.014503 575,277.56 C578.744918,280.167584 580.983968,284.436706 581,289 L581,311 C581,318.731986 574.731986,325 567,325 L545,325 C537.268014,325 531,318.731986 531,311 L531,289 C531,281.268014 537.268014,275 545,275 L552,275 C552.552285,275 553,274.552285 553,274 C553,273.447715 552.552285,273 552,273 L545,273 C536.163444,273 529,280.163444 529,289 L529,311 C529,319.836556 536.163444,327 545,327 L567,327 C575.836556,327 583.000053,319.836556 583.000053,311 L583.000053,289 C583.013678,283.689035 580.391118,278.71741 576,275.73 Z M572,277 C570.895431,277 570,276.104569 570,275 C570,273.895431 570.895431,273 572,273 C573.104569,273 574,273.895431 574,275 C574,276.104569 573.104569,277 572,277 Z" id="Shape" transform="translate(556.000053, 298.956376) rotate(50.000000) translate(-556.000053, -298.956376) "></path>
        </g>
    </g>
</svg>