<?xml version="1.0" encoding="UTF-8"?>
<svg width="121px" height="28px" viewBox="0 0 121 28" version="1.1" xmlns="http://www.w3.org/2000/svg" xmlns:xlink="http://www.w3.org/1999/xlink">
    <!-- Generator: Sketch 59.1 (86144) - https://sketch.com -->
    <title>Group 2</title>
    <desc>Created with Sketch.</desc>
    <g id="v1" stroke="none" stroke-width="1" fill="none" fill-rule="evenodd">
        <g id="About-us-iPad" transform="translate(-19.000000, -32.000000)">
            <g id="Group-2" transform="translate(19.000000, 32.000000)">
                <g id="Group" transform="translate(12.000000, 0.000000)">
                    <path d="M2.32076,3.96663672 L0,0.0381263734 L8.85885,0.0120809292 C8.85885,0.0120809292 13,0 13,0 L6.944925,12 L4.231825,7.49823008 L6.09986,3.96267469 L2.32076,3.96663672 Z" id="Path" fill="#CC5200"></path>
                    <path d="M10.99891,3.99751109 L2.32076,4 C2.32076,4 0,0.0384470534 0,0.0384470534 L13,0 L10.99891,3.99751109 Z" id="Path" fill="#FF6700" fill-rule="nonzero"></path>
                </g>
                <path d="M40.5296842,7 L47,7 L47,25.1841514 L40.5296842,27.7765744 L40.5296842,24.7234256 C39.1928276,26.9077608 37.0612995,28 34.1350998,28 C31.7135827,28 29.7522686,27.2055662 28.251303,25.6169848 C26.7504828,24.0284033 26,21.8688136 26,19.1382157 L26,7 L32.4323774,7 L32.4323774,18.2818464 C32.4323774,19.6222567 32.7918475,20.658711 33.5107876,21.3909232 C34.2297278,22.1231354 35.2197604,22.489313 36.4810308,22.489313 C37.7423012,22.489313 38.7324792,22.1231354 39.451274,21.3909232 C40.1702141,20.658711 40.5296842,19.6222567 40.5296842,18.2818464 L40.5296842,7" id="Fill-1" fill="#333333"></path>
                <polyline id="Fill-3" fill="#333333" points="49 7 56.0679679 7 61 22.618291 65.9320321 7 73 7 65.3106608 28 56.6893392 28 49 7"></polyline>
                <path d="M87.855281,21.286976 C88.7456703,20.4088957 89.1907895,19.1404794 89.1907895,17.4817272 C89.1907895,15.8229749 88.732543,14.5607433 87.8160502,13.6947512 C86.8995573,12.8288997 85.8128629,12.3958333 84.555967,12.3958333 C83.299222,12.3958333 82.2190158,12.8288997 81.3156502,13.6947512 C80.4122846,14.5607433 79.9605263,15.8229749 79.9605263,17.4817272 C79.9605263,19.1404794 80.4254118,20.4088957 81.354881,21.286976 C82.2845012,22.1650562 83.3776837,22.6041667 84.6345796,22.6041667 C85.8914755,22.6041667 86.9650426,22.1650562 87.855281,21.286976 Z M76.3336277,25.0946204 C74.1112092,23.1576065 73,20.6076993 73,17.4448989 C73,14.2819573 74.1046923,11.7504171 76.3139254,9.85027853 C78.5231584,7.95013994 81.2584427,7 84.5197781,7 C87.7811135,7 90.5097292,7.95013994 92.7059285,9.85027853 C94.9019762,11.7504171 96,14.2819573 96,17.4448989 C96,20.6076993 94.9084931,23.1576065 92.7256308,25.0946204 C90.5426169,27.031493 87.8205181,28 84.5591827,28 C81.2978472,28 78.5560461,27.031493 76.3336277,25.0946204 L76.3336277,25.0946204 Z" id="Fill-4" fill="#333333"></path>
                <path d="M106.470316,2 L106.470316,11.2756297 C107.807172,9.21442366 109.938701,8.18375314 112.8649,8.18375314 C115.286417,8.18375314 117.247731,8.93340532 118.748552,10.4324397 C120.249517,11.9314741 121,13.9693295 121,16.5460058 L121,28 L114.567477,28 L114.567477,17.3541022 C114.567477,16.0892497 114.208007,15.1112196 113.489212,14.4202816 C112.770272,13.7293436 111.780094,13.3838071 110.518824,13.3838071 C109.257699,13.3838071 108.267521,13.7293436 107.548581,14.4202816 C106.829786,15.1112196 106.470316,16.0892497 106.470316,17.3541022 L106.470316,28 L100,28 L100,4.44629026 L106.470316,2" id="Fill-5" fill="#333333"></path>
                <polyline id="Fill-9" fill="#333333" points="18 25.2229899 10.5652872 28 10.5652872 14.7551617 0 0 8.43484019 0 18 14.7551617 18 25.2229899"></polyline>
            </g>
        </g>
    </g>
</svg>